<svg id="visual" viewBox="0 0 960 300" width="960" height="300" xmlns="http://www.w3.org/2000/svg" xmlns:xlink="http://www.w3.org/1999/xlink" version="1.1"><rect x="0" y="0" width="960" height="300" fill="#001220"></rect><path d="M0 103L22.8 106.7C45.7 110.3 91.3 117.7 137 116.7C182.7 115.7 228.3 106.3 274 103.3C319.7 100.3 365.3 103.7 411.2 106.2C457 108.7 503 110.3 548.8 107.2C594.7 104 640.3 96 686 92.8C731.7 89.7 777.3 91.3 823 94.8C868.7 98.3 914.3 103.7 937.2 106.3L960 109L960 0L937.2 0C914.3 0 868.7 0 823 0C777.3 0 731.7 0 686 0C640.3 0 594.7 0 548.8 0C503 0 457 0 411.2 0C365.3 0 319.7 0 274 0C228.3 0 182.7 0 137 0C91.3 0 45.7 0 22.8 0L0 0Z" fill="#fa7268"></path><path d="M0 95L22.8 93.2C45.7 91.3 91.3 87.7 137 90C182.7 92.3 228.3 100.7 274 99C319.7 97.3 365.3 85.7 411.2 86.3C457 87 503 100 548.8 104.8C594.7 109.7 640.3 106.3 686 102.2C731.7 98 777.3 93 823 93.3C868.7 93.7 914.3 99.3 937.2 102.2L960 105L960 0L937.2 0C914.3 0 868.7 0 823 0C777.3 0 731.7 0 686 0C640.3 0 594.7 0 548.8 0C503 0 457 0 411.2 0C365.3 0 319.7 0 274 0C228.3 0 182.7 0 137 0C91.3 0 45.7 0 22.8 0L0 0Z" fill="#f46767"></path><path d="M0 86L22.8 82.7C45.7 79.3 91.3 72.7 137 72.3C182.7 72 228.3 78 274 78.2C319.7 78.3 365.3 72.7 411.2 70C457 67.3 503 67.7 548.8 70C594.7 72.3 640.3 76.7 686 76C731.7 75.3 777.3 69.7 823 67C868.7 64.3 914.3 64.7 937.2 64.8L960 65L960 0L937.2 0C914.3 0 868.7 0 823 0C777.3 0 731.7 0 686 0C640.3 0 594.7 0 548.8 0C503 0 457 0 411.2 0C365.3 0 319.7 0 274 0C228.3 0 182.7 0 137 0C91.3 0 45.7 0 22.8 0L0 0Z" fill="#ee5c67"></path><path d="M0 56L22.8 57C45.7 58 91.3 60 137 59C182.7 58 228.3 54 274 54.8C319.7 55.7 365.3 61.3 411.2 63.2C457 65 503 63 548.8 65.2C594.7 67.3 640.3 73.7 686 75.3C731.7 77 777.3 74 823 70.2C868.7 66.3 914.3 61.7 937.2 59.3L960 57L960 0L937.2 0C914.3 0 868.7 0 823 0C777.3 0 731.7 0 686 0C640.3 0 594.7 0 548.8 0C503 0 457 0 411.2 0C365.3 0 319.7 0 274 0C228.3 0 182.7 0 137 0C91.3 0 45.7 0 22.8 0L0 0Z" fill="#e75167"></path><path d="M0 63L22.8 63.7C45.7 64.3 91.3 65.7 137 63.8C182.7 62 228.3 57 274 52.5C319.7 48 365.3 44 411.2 47C457 50 503 60 548.8 62.3C594.7 64.7 640.3 59.3 686 53.8C731.7 48.3 777.3 42.7 823 45.3C868.7 48 914.3 59 937.2 64.5L960 70L960 0L937.2 0C914.3 0 868.7 0 823 0C777.3 0 731.7 0 686 0C640.3 0 594.7 0 548.8 0C503 0 457 0 411.2 0C365.3 0 319.7 0 274 0C228.3 0 182.7 0 137 0C91.3 0 45.7 0 22.8 0L0 0Z" fill="#df4667"></path><path d="M0 49L22.8 47.7C45.7 46.3 91.3 43.7 137 44C182.7 44.3 228.3 47.7 274 45.2C319.7 42.7 365.3 34.3 411.2 30.5C457 26.7 503 27.3 548.8 30.7C594.7 34 640.3 40 686 43.2C731.7 46.3 777.3 46.7 823 46.3C868.7 46 914.3 45 937.2 44.5L960 44L960 0L937.2 0C914.3 0 868.7 0 823 0C777.3 0 731.7 0 686 0C640.3 0 594.7 0 548.8 0C503 0 457 0 411.2 0C365.3 0 319.7 0 274 0C228.3 0 182.7 0 137 0C91.3 0 45.7 0 22.8 0L0 0Z" fill="#d73b67"></path><path d="M0 31L22.8 32.2C45.7 33.3 91.3 35.7 137 34.5C182.7 33.3 228.3 28.7 274 26.5C319.7 24.3 365.3 24.7 411.2 23.8C457 23 503 21 548.8 20.5C594.7 20 640.3 21 686 21.2C731.7 21.3 777.3 20.7 823 19.8C868.7 19 914.3 18 937.2 17.5L960 17L960 0L937.2 0C914.3 0 868.7 0 823 0C777.3 0 731.7 0 686 0C640.3 0 594.7 0 548.8 0C503 0 457 0 411.2 0C365.3 0 319.7 0 274 0C228.3 0 182.7 0 137 0C91.3 0 45.7 0 22.8 0L0 0Z" fill="#cf3068"></path><path d="M0 17L22.8 16.3C45.7 15.7 91.3 14.3 137 15.7C182.7 17 228.3 21 274 21C319.7 21 365.3 17 411.2 16C457 15 503 17 548.8 19.2C594.7 21.3 640.3 23.7 686 22.7C731.7 21.7 777.3 17.3 823 14.3C868.7 11.3 914.3 9.7 937.2 8.8L960 8L960 0L937.2 0C914.3 0 868.7 0 823 0C777.3 0 731.7 0 686 0C640.3 0 594.7 0 548.8 0C503 0 457 0 411.2 0C365.3 0 319.7 0 274 0C228.3 0 182.7 0 137 0C91.3 0 45.7 0 22.8 0L0 0Z" fill="#c62368"></path></svg>