<svg id="visual" viewBox="0 0 960 300" width="960" height="300" xmlns="http://www.w3.org/2000/svg" xmlns:xlink="http://www.w3.org/1999/xlink" version="1.1"><rect x="0" y="0" width="960" height="300" fill="#001220"></rect><path d="M0 191L22.8 193.7C45.7 196.3 91.3 201.7 137 206C182.7 210.3 228.3 213.7 274 209C319.7 204.3 365.3 191.7 411.2 191.2C457 190.7 503 202.3 548.8 206.7C594.7 211 640.3 208 686 203.7C731.7 199.3 777.3 193.7 823 192.3C868.7 191 914.3 194 937.2 195.5L960 197L960 301L937.2 301C914.3 301 868.7 301 823 301C777.3 301 731.7 301 686 301C640.3 301 594.7 301 548.8 301C503 301 457 301 411.2 301C365.3 301 319.7 301 274 301C228.3 301 182.7 301 137 301C91.3 301 45.7 301 22.8 301L0 301Z" fill="#fa7268"></path><path d="M0 185L22.8 192C45.7 199 91.3 213 137 218.8C182.7 224.7 228.3 222.3 274 219.8C319.7 217.3 365.3 214.7 411.2 214.5C457 214.3 503 216.7 548.8 215.2C594.7 213.7 640.3 208.3 686 206.7C731.7 205 777.3 207 823 209C868.7 211 914.3 213 937.2 214L960 215L960 301L937.2 301C914.3 301 868.7 301 823 301C777.3 301 731.7 301 686 301C640.3 301 594.7 301 548.8 301C503 301 457 301 411.2 301C365.3 301 319.7 301 274 301C228.3 301 182.7 301 137 301C91.3 301 45.7 301 22.8 301L0 301Z" fill="#f46767"></path><path d="M0 213L22.8 210.8C45.7 208.7 91.3 204.3 137 209.2C182.7 214 228.3 228 274 233.7C319.7 239.3 365.3 236.7 411.2 231.7C457 226.7 503 219.3 548.8 217.5C594.7 215.7 640.3 219.3 686 219C731.7 218.7 777.3 214.3 823 215.8C868.7 217.3 914.3 224.7 937.2 228.3L960 232L960 301L937.2 301C914.3 301 868.7 301 823 301C777.3 301 731.7 301 686 301C640.3 301 594.7 301 548.8 301C503 301 457 301 411.2 301C365.3 301 319.7 301 274 301C228.3 301 182.7 301 137 301C91.3 301 45.7 301 22.8 301L0 301Z" fill="#ee5c67"></path><path d="M0 243L22.8 242C45.7 241 91.3 239 137 238.5C182.7 238 228.3 239 274 240.5C319.7 242 365.3 244 411.2 244.2C457 244.3 503 242.7 548.8 238C594.7 233.3 640.3 225.7 686 227.5C731.7 229.3 777.3 240.7 823 246C868.7 251.3 914.3 250.7 937.2 250.3L960 250L960 301L937.2 301C914.3 301 868.7 301 823 301C777.3 301 731.7 301 686 301C640.3 301 594.7 301 548.8 301C503 301 457 301 411.2 301C365.3 301 319.7 301 274 301C228.3 301 182.7 301 137 301C91.3 301 45.7 301 22.8 301L0 301Z" fill="#e75167"></path><path d="M0 242L22.8 241.2C45.7 240.3 91.3 238.7 137 238.3C182.7 238 228.3 239 274 240.2C319.7 241.3 365.3 242.7 411.2 244.2C457 245.7 503 247.3 548.8 247.3C594.7 247.3 640.3 245.7 686 247.8C731.7 250 777.3 256 823 254C868.7 252 914.3 242 937.2 237L960 232L960 301L937.2 301C914.3 301 868.7 301 823 301C777.3 301 731.7 301 686 301C640.3 301 594.7 301 548.8 301C503 301 457 301 411.2 301C365.3 301 319.7 301 274 301C228.3 301 182.7 301 137 301C91.3 301 45.7 301 22.8 301L0 301Z" fill="#df4667"></path><path d="M0 262L22.8 260C45.7 258 91.3 254 137 251.7C182.7 249.3 228.3 248.7 274 247.8C319.7 247 365.3 246 411.2 247C457 248 503 251 548.8 253C594.7 255 640.3 256 686 254.5C731.7 253 777.3 249 823 248.5C868.7 248 914.3 251 937.2 252.5L960 254L960 301L937.2 301C914.3 301 868.7 301 823 301C777.3 301 731.7 301 686 301C640.3 301 594.7 301 548.8 301C503 301 457 301 411.2 301C365.3 301 319.7 301 274 301C228.3 301 182.7 301 137 301C91.3 301 45.7 301 22.8 301L0 301Z" fill="#d73b67"></path><path d="M0 267L22.8 266.7C45.7 266.3 91.3 265.7 137 266.3C182.7 267 228.3 269 274 271.5C319.7 274 365.3 277 411.2 278C457 279 503 278 548.8 275C594.7 272 640.3 267 686 267.5C731.7 268 777.3 274 823 273.3C868.7 272.7 914.3 265.3 937.2 261.7L960 258L960 301L937.2 301C914.3 301 868.7 301 823 301C777.3 301 731.7 301 686 301C640.3 301 594.7 301 548.8 301C503 301 457 301 411.2 301C365.3 301 319.7 301 274 301C228.3 301 182.7 301 137 301C91.3 301 45.7 301 22.8 301L0 301Z" fill="#cf3068"></path><path d="M0 282L22.8 282.7C45.7 283.3 91.3 284.7 137 283.3C182.7 282 228.3 278 274 277.3C319.7 276.7 365.3 279.3 411.2 281.8C457 284.3 503 286.7 548.8 286.7C594.7 286.7 640.3 284.3 686 282.2C731.7 280 777.3 278 823 278.3C868.7 278.7 914.3 281.3 937.2 282.7L960 284L960 301L937.2 301C914.3 301 868.7 301 823 301C777.3 301 731.7 301 686 301C640.3 301 594.7 301 548.8 301C503 301 457 301 411.2 301C365.3 301 319.7 301 274 301C228.3 301 182.7 301 137 301C91.3 301 45.7 301 22.8 301L0 301Z" fill="#c62368"></path></svg>