<svg id="visual" viewBox="0 0 900 150" width="900" height="150" xmlns="http://www.w3.org/2000/svg" xmlns:xlink="http://www.w3.org/1999/xlink" version="1.1"><path d="M0 55L13.7 55.5C27.3 56 54.7 57 82 59.8C109.3 62.7 136.7 67.3 163.8 65.7C191 64 218 56 245.2 54.5C272.3 53 299.7 58 327 60.5C354.3 63 381.7 63 409 60.5C436.3 58 463.7 53 491 51.3C518.3 49.7 545.7 51.3 573 52.8C600.3 54.3 627.7 55.7 654.8 57.2C682 58.7 709 60.3 736.2 58.5C763.3 56.7 790.7 51.3 818 48.5C845.3 45.7 872.7 45.3 886.3 45.2L900 45L900 0L886.3 0C872.7 0 845.3 0 818 0C790.7 0 763.3 0 736.2 0C709 0 682 0 654.8 0C627.7 0 600.3 0 573 0C545.7 0 518.3 0 491 0C463.7 0 436.3 0 409 0C381.7 0 354.3 0 327 0C299.7 0 272.3 0 245.2 0C218 0 191 0 163.8 0C136.7 0 109.3 0 82 0C54.7 0 27.3 0 13.7 0L0 0Z" fill="#fa7268"></path><path d="M0 60L13.7 59.5C27.3 59 54.7 58 82 55C109.3 52 136.7 47 163.8 45.5C191 44 218 46 245.2 48.7C272.3 51.3 299.7 54.7 327 53C354.3 51.3 381.7 44.7 409 44.3C436.3 44 463.7 50 491 53C518.3 56 545.7 56 573 53.2C600.3 50.3 627.7 44.7 654.8 42C682 39.3 709 39.7 736.2 42.5C763.3 45.3 790.7 50.7 818 53.2C845.3 55.7 872.7 55.3 886.3 55.2L900 55L900 0L886.3 0C872.7 0 845.3 0 818 0C790.7 0 763.3 0 736.2 0C709 0 682 0 654.8 0C627.7 0 600.3 0 573 0C545.7 0 518.3 0 491 0C463.7 0 436.3 0 409 0C381.7 0 354.3 0 327 0C299.7 0 272.3 0 245.2 0C218 0 191 0 163.8 0C136.7 0 109.3 0 82 0C54.7 0 27.3 0 13.7 0L0 0Z" fill="#f16367"></path><path d="M0 32L13.7 32.5C27.3 33 54.7 34 82 37C109.3 40 136.7 45 163.8 47C191 49 218 48 245.2 46.3C272.3 44.7 299.7 42.3 327 39.7C354.3 37 381.7 34 409 34.5C436.3 35 463.7 39 491 38.8C518.3 38.7 545.7 34.3 573 33.7C600.3 33 627.7 36 654.8 40C682 44 709 49 736.2 48.3C763.3 47.7 790.7 41.3 818 40.8C845.3 40.3 872.7 45.7 886.3 48.3L900 51L900 0L886.3 0C872.7 0 845.3 0 818 0C790.7 0 763.3 0 736.2 0C709 0 682 0 654.8 0C627.7 0 600.3 0 573 0C545.7 0 518.3 0 491 0C463.7 0 436.3 0 409 0C381.7 0 354.3 0 327 0C299.7 0 272.3 0 245.2 0C218 0 191 0 163.8 0C136.7 0 109.3 0 82 0C54.7 0 27.3 0 13.7 0L0 0Z" fill="#e85467"></path><path d="M0 31L13.7 31.5C27.3 32 54.7 33 82 31.2C109.3 29.3 136.7 24.7 163.8 23.8C191 23 218 26 245.2 27.8C272.3 29.7 299.7 30.3 327 31.3C354.3 32.3 381.7 33.7 409 35.7C436.3 37.7 463.7 40.3 491 37.8C518.3 35.3 545.7 27.7 573 27.7C600.3 27.7 627.7 35.3 654.8 36.2C682 37 709 31 736.2 29.5C763.3 28 790.7 31 818 31.8C845.3 32.7 872.7 31.3 886.3 30.7L900 30L900 0L886.3 0C872.7 0 845.3 0 818 0C790.7 0 763.3 0 736.2 0C709 0 682 0 654.8 0C627.7 0 600.3 0 573 0C545.7 0 518.3 0 491 0C463.7 0 436.3 0 409 0C381.7 0 354.3 0 327 0C299.7 0 272.3 0 245.2 0C218 0 191 0 163.8 0C136.7 0 109.3 0 82 0C54.7 0 27.3 0 13.7 0L0 0Z" fill="#de4467"></path><path d="M0 28L13.7 26.5C27.3 25 54.7 22 82 19.7C109.3 17.3 136.7 15.7 163.8 16.2C191 16.7 218 19.3 245.2 21.2C272.3 23 299.7 24 327 23.5C354.3 23 381.7 21 409 20.2C436.3 19.3 463.7 19.7 491 18.7C518.3 17.7 545.7 15.3 573 14.2C600.3 13 627.7 13 654.8 15.2C682 17.3 709 21.7 736.2 23.5C763.3 25.3 790.7 24.7 818 25.2C845.3 25.7 872.7 27.3 886.3 28.2L900 29L900 0L886.3 0C872.7 0 845.3 0 818 0C790.7 0 763.3 0 736.2 0C709 0 682 0 654.8 0C627.7 0 600.3 0 573 0C545.7 0 518.3 0 491 0C463.7 0 436.3 0 409 0C381.7 0 354.3 0 327 0C299.7 0 272.3 0 245.2 0C218 0 191 0 163.8 0C136.7 0 109.3 0 82 0C54.7 0 27.3 0 13.7 0L0 0Z" fill="#d23467"></path><path d="M0 10L13.7 9.7C27.3 9.3 54.7 8.7 82 8.8C109.3 9 136.7 10 163.8 11.7C191 13.3 218 15.7 245.2 16C272.3 16.3 299.7 14.7 327 13.2C354.3 11.7 381.7 10.3 409 9.3C436.3 8.3 463.7 7.7 491 9C518.3 10.3 545.7 13.7 573 14.2C600.3 14.7 627.7 12.3 654.8 11.7C682 11 709 12 736.2 11.2C763.3 10.3 790.7 7.7 818 7.5C845.3 7.3 872.7 9.7 886.3 10.8L900 12L900 0L886.3 0C872.7 0 845.3 0 818 0C790.7 0 763.3 0 736.2 0C709 0 682 0 654.8 0C627.7 0 600.3 0 573 0C545.7 0 518.3 0 491 0C463.7 0 436.3 0 409 0C381.7 0 354.3 0 327 0C299.7 0 272.3 0 245.2 0C218 0 191 0 163.8 0C136.7 0 109.3 0 82 0C54.7 0 27.3 0 13.7 0L0 0Z" fill="#c62368"></path></svg>