<svg id="visual" viewBox="0 0 900 150" width="900" height="150" xmlns="http://www.w3.org/2000/svg" xmlns:xlink="http://www.w3.org/1999/xlink" version="1.1"><path d="M0 87L13.7 88.2C27.3 89.3 54.7 91.7 82 94.2C109.3 96.7 136.7 99.3 163.8 96.7C191 94 218 86 245.2 84.7C272.3 83.3 299.7 88.7 327 92.5C354.3 96.3 381.7 98.7 409 100.3C436.3 102 463.7 103 491 100C518.3 97 545.7 90 573 88.8C600.3 87.7 627.7 92.3 654.8 91.5C682 90.7 709 84.3 736.2 85.2C763.3 86 790.7 94 818 96.7C845.3 99.3 872.7 96.7 886.3 95.3L900 94L900 151L886.3 151C872.7 151 845.3 151 818 151C790.7 151 763.3 151 736.2 151C709 151 682 151 654.8 151C627.7 151 600.3 151 573 151C545.7 151 518.3 151 491 151C463.7 151 436.3 151 409 151C381.7 151 354.3 151 327 151C299.7 151 272.3 151 245.2 151C218 151 191 151 163.8 151C136.7 151 109.3 151 82 151C54.7 151 27.3 151 13.7 151L0 151Z" fill="#fa7268"></path><path d="M0 95L13.7 97.8C27.3 100.7 54.7 106.3 82 107.2C109.3 108 136.7 104 163.8 102.7C191 101.3 218 102.7 245.2 104.7C272.3 106.7 299.7 109.3 327 109.3C354.3 109.3 381.7 106.7 409 103.2C436.3 99.7 463.7 95.3 491 96.2C518.3 97 545.7 103 573 103C600.3 103 627.7 97 654.8 94.2C682 91.3 709 91.7 736.2 91.5C763.3 91.3 790.7 90.7 818 90.3C845.3 90 872.7 90 886.3 90L900 90L900 151L886.3 151C872.7 151 845.3 151 818 151C790.7 151 763.3 151 736.2 151C709 151 682 151 654.8 151C627.7 151 600.3 151 573 151C545.7 151 518.3 151 491 151C463.7 151 436.3 151 409 151C381.7 151 354.3 151 327 151C299.7 151 272.3 151 245.2 151C218 151 191 151 163.8 151C136.7 151 109.3 151 82 151C54.7 151 27.3 151 13.7 151L0 151Z" fill="#f16367"></path><path d="M0 96L13.7 99.2C27.3 102.3 54.7 108.7 82 112C109.3 115.3 136.7 115.7 163.8 112.3C191 109 218 102 245.2 98.8C272.3 95.7 299.7 96.3 327 98.2C354.3 100 381.7 103 409 106C436.3 109 463.7 112 491 113C518.3 114 545.7 113 573 110.8C600.3 108.7 627.7 105.3 654.8 103.8C682 102.3 709 102.7 736.2 103.3C763.3 104 790.7 105 818 106.5C845.3 108 872.7 110 886.3 111L900 112L900 151L886.3 151C872.7 151 845.3 151 818 151C790.7 151 763.3 151 736.2 151C709 151 682 151 654.8 151C627.7 151 600.3 151 573 151C545.7 151 518.3 151 491 151C463.7 151 436.3 151 409 151C381.7 151 354.3 151 327 151C299.7 151 272.3 151 245.2 151C218 151 191 151 163.8 151C136.7 151 109.3 151 82 151C54.7 151 27.3 151 13.7 151L0 151Z" fill="#e85467"></path><path d="M0 107L13.7 110.3C27.3 113.7 54.7 120.3 82 121.8C109.3 123.3 136.7 119.7 163.8 116.5C191 113.3 218 110.7 245.2 108.8C272.3 107 299.7 106 327 108.2C354.3 110.3 381.7 115.7 409 118.2C436.3 120.7 463.7 120.3 491 121.3C518.3 122.3 545.7 124.7 573 125.8C600.3 127 627.7 127 654.8 125.2C682 123.3 709 119.7 736.2 118.5C763.3 117.3 790.7 118.7 818 119C845.3 119.3 872.7 118.7 886.3 118.3L900 118L900 151L886.3 151C872.7 151 845.3 151 818 151C790.7 151 763.3 151 736.2 151C709 151 682 151 654.8 151C627.7 151 600.3 151 573 151C545.7 151 518.3 151 491 151C463.7 151 436.3 151 409 151C381.7 151 354.3 151 327 151C299.7 151 272.3 151 245.2 151C218 151 191 151 163.8 151C136.7 151 109.3 151 82 151C54.7 151 27.3 151 13.7 151L0 151Z" fill="#de4467"></path><path d="M0 122L13.7 122.7C27.3 123.3 54.7 124.7 82 124.5C109.3 124.3 136.7 122.7 163.8 122.8C191 123 218 125 245.2 127.3C272.3 129.7 299.7 132.3 327 130.8C354.3 129.3 381.7 123.7 409 122.2C436.3 120.7 463.7 123.3 491 123.3C518.3 123.3 545.7 120.7 573 120.8C600.3 121 627.7 124 654.8 126.3C682 128.7 709 130.3 736.2 131C763.3 131.7 790.7 131.3 818 131.8C845.3 132.3 872.7 133.7 886.3 134.3L900 135L900 151L886.3 151C872.7 151 845.3 151 818 151C790.7 151 763.3 151 736.2 151C709 151 682 151 654.8 151C627.7 151 600.3 151 573 151C545.7 151 518.3 151 491 151C463.7 151 436.3 151 409 151C381.7 151 354.3 151 327 151C299.7 151 272.3 151 245.2 151C218 151 191 151 163.8 151C136.7 151 109.3 151 82 151C54.7 151 27.3 151 13.7 151L0 151Z" fill="#d23467"></path><path d="M0 134L13.7 134.8C27.3 135.7 54.7 137.3 82 137.5C109.3 137.7 136.7 136.3 163.8 136.5C191 136.7 218 138.3 245.2 137.5C272.3 136.7 299.7 133.3 327 132.3C354.3 131.3 381.7 132.7 409 132.7C436.3 132.7 463.7 131.3 491 132.2C518.3 133 545.7 136 573 137C600.3 138 627.7 137 654.8 136.7C682 136.3 709 136.7 736.2 137.3C763.3 138 790.7 139 818 138.8C845.3 138.7 872.7 137.3 886.3 136.7L900 136L900 151L886.3 151C872.7 151 845.3 151 818 151C790.7 151 763.3 151 736.2 151C709 151 682 151 654.8 151C627.7 151 600.3 151 573 151C545.7 151 518.3 151 491 151C463.7 151 436.3 151 409 151C381.7 151 354.3 151 327 151C299.7 151 272.3 151 245.2 151C218 151 191 151 163.8 151C136.7 151 109.3 151 82 151C54.7 151 27.3 151 13.7 151L0 151Z" fill="#c62368"></path></svg>